<svg width="430" height="300" viewBox="0 0 430 300" fill="none" xmlns="http://www.w3.org/2000/svg" role="img" aria-labelledby="title desc">
  <title id="title">Event Brigade Logo</title>
  <desc id="desc">Event Brigade shield logo with ribbon and To Your Rescue tagline.</desc>
  <defs>
    <linearGradient id="shieldGold" x1="105" y1="28" x2="316" y2="269" gradientUnits="userSpaceOnUse">
      <stop stop-color="#FFE783"/>
      <stop offset="0.4" stop-color="#F6B91F"/>
      <stop offset="0.72" stop-color="#C99108"/>
      <stop offset="1" stop-color="#7F5C05"/>
    </linearGradient>
    <linearGradient id="ribbon" x1="72" y1="128" x2="356" y2="128" gradientUnits="userSpaceOnUse">
      <stop stop-color="#111114"/>
      <stop offset="0.5" stop-color="#3B3740"/>
      <stop offset="1" stop-color="#111114"/>
    </linearGradient>
    <filter id="shadow" x="39" y="11" width="352" height="283" filterUnits="userSpaceOnUse" color-interpolation-filters="sRGB">
      <feDropShadow dx="0" dy="8" stdDeviation="7" flood-color="#000000" flood-opacity="0.55"/>
    </filter>
  </defs>
  <rect width="430" height="300" fill="#1B1B1B"/>
  <g filter="url(#shadow)">
    <path d="M215 27L305 63L294 197L215 262L136 197L125 63L215 27Z" fill="url(#shieldGold)" stroke="#EFEFEF" stroke-width="5"/>
    <path d="M215 43L288 72L279 188L215 242L151 188L142 72L215 43Z" stroke="#FFEBA4" stroke-opacity="0.55" stroke-width="2"/>
    <path d="M88 107H342L379 146L342 185H88L51 146L88 107Z" fill="url(#ribbon)" stroke="#9B97A2" stroke-width="5"/>
    <path d="M88 107L51 146L88 185L99 161L80 146L99 131L88 107Z" fill="#17171B" stroke="#9B97A2" stroke-width="4"/>
    <path d="M342 107L379 146L342 185L331 161L350 146L331 131L342 107Z" fill="#17171B" stroke="#9B97A2" stroke-width="4"/>
    <text x="215" y="96" text-anchor="middle" font-family="Georgia, 'Times New Roman', serif" font-size="45" font-weight="900" fill="#111114" letter-spacing="1">EVENT</text>
    <text x="215" y="163" text-anchor="middle" font-family="Georgia, 'Times New Roman', serif" font-size="55" font-weight="900" fill="#FFFFFF" stroke="#111114" stroke-width="1.2" letter-spacing="1">BRIGADE</text>
    <text x="215" y="205" text-anchor="middle" font-family="Arial, sans-serif" font-size="15" font-weight="900" fill="#2A271E" letter-spacing="0.8">TO YOUR RESCUE</text>
    <text x="145" y="75" text-anchor="middle" font-family="Arial, sans-serif" font-size="28" fill="#FFFFFF">★</text>
    <text x="176" y="58" text-anchor="middle" font-family="Arial, sans-serif" font-size="31" fill="#FFFFFF">★</text>
    <text x="215" y="52" text-anchor="middle" font-family="Arial, sans-serif" font-size="34" fill="#FFFFFF">★</text>
    <text x="254" y="58" text-anchor="middle" font-family="Arial, sans-serif" font-size="31" fill="#FFFFFF">★</text>
    <text x="285" y="75" text-anchor="middle" font-family="Arial, sans-serif" font-size="28" fill="#FFFFFF">★</text>
  </g>
  <text x="327" y="48" font-family="Arial, sans-serif" font-size="20" fill="#F4F4F4">®</text>
</svg>
